<?xml version="1.0" encoding="UTF-8"?><svg id="Vrstva_1" xmlns="http://www.w3.org/2000/svg" viewBox="0 0 141.73 56.69"><defs><style>.cls-1{fill:#afafaf;stroke-width:0px;}</style></defs><path class="cls-1" d="M22.95,24.72h3.55l1.18,4.3h.03l1.58-4.3h2.82l1.45,4.3h.03l1.32-4.3h3.55l-2.47,7.28h-3.87l-1.41-3.8-1.41,3.8h-3.87l-2.47-7.28Z"/><path class="cls-1" d="M39.26,22.17h3.33v3.46h.03c.32-.47,1.3-1.1,2.9-1.1,1.84,0,3.22.82,3.22,2.85v4.63h-3.33v-3.76c0-.92-.48-1.32-1.28-1.32-.89,0-1.54.52-1.54,1.73v3.35h-3.33v-9.83Z"/><path class="cls-1" d="M50.38,26.93c.2-1.01.6-1.61,1.44-1.99.81-.37,2.01-.51,3.78-.51,3.39,0,4.74.76,4.74,2.93v3.51c0,.57.15.88.31,1.13h-3.41c-.07-.21-.11-.45-.12-.72-.74.69-1.88,1.01-3.64,1.01-2.23,0-3.65-.6-3.65-2.46,0-1.33.94-2.18,3.41-2.29l2.81-.13c.68-.04.89-.19.89-.6,0-.48-.59-.71-1.54-.71-.74,0-1.53.12-1.68.82h-3.33ZM57,28.69c-.57.12-1.5.2-2.69.31-.63.05-.9.25-.9.72,0,.52.4.82,1.24.82,1.12,0,2.35-.28,2.35-1.53v-.32Z"/><path class="cls-1" d="M61.22,24.72h1.54v-2.34h3.33v2.34h1.8v2.07h-1.8v2.57c0,.68.28.72,1,.72.27,0,.57-.01.89-.03v1.94c-.59.09-1.37.16-2.42.16-2.02,0-2.79-.4-2.79-2.37v-2.99h-1.54v-2.07Z"/><path class="cls-1" d="M69.04,22.17h3.33v3.46h.03c.32-.47,1.3-1.1,2.9-1.1,1.84,0,3.22.82,3.22,2.85v4.63h-3.33v-3.76c0-.92-.48-1.32-1.28-1.32-.89,0-1.54.52-1.54,1.73v3.35h-3.33v-9.83Z"/><path class="cls-1" d="M90.38,29.82c-.25.78-.81,1.38-1.66,1.81-.85.43-1.98.67-3.53.67-3.5,0-5.49-1.28-5.49-3.94,0-2.51,1.93-3.92,5.19-3.92s5.57,1.08,5.53,4.71h-7.32c0,.52.55,1.32,2.01,1.32.86,0,1.37-.17,1.73-.64h3.54ZM87.07,27.46c-.07-.8-.81-1.28-1.97-1.28s-1.82.36-2,1.28h3.96Z"/><path class="cls-1" d="M92.54,26.8h-1.54v-2.07h1.54v-.77c0-1.33.77-1.86,2.94-1.86.64,0,1.49.01,2.18.08v1.76h-1c-.63,0-.8.17-.8.59v.21h1.8v2.07h-1.8v5.2h-3.33v-5.2ZM98.56,22.17h3.33v9.83h-3.33v-9.83Z"/><path class="cls-1" d="M103.48,22.17h3.33v1.84h-3.33v-1.84ZM103.48,24.72h3.33v7.28h-3.33v-7.28Z"/><path class="cls-1" d="M108.4,24.72h3.22v.86h.03c.6-.69,1.5-1.06,2.99-1.06,2.15,0,4.14,1.18,4.14,3.88s-1.98,3.88-4.14,3.88c-1.36,0-2.31-.35-2.89-1.02h-.03v3.34h-3.33v-9.88ZM113.56,30.06c1.21,0,1.81-.7,1.81-1.65s-.53-1.65-1.82-1.65-1.82.6-1.82,1.65.55,1.65,1.84,1.65Z"/></svg>