<?xml version="1.0" encoding="UTF-8"?><svg id="Vrstva_1" xmlns="http://www.w3.org/2000/svg" viewBox="0 0 74.5 10.97"><defs><style>.cls-1{fill:#afafaf;stroke-width:0px;}</style></defs><path class="cls-1" d="M1.31,2.76h2.66l.89,3.23h.02l1.18-3.22h2.11l1.09,3.22h.02l.99-3.22h2.66l-1.85,5.46h-2.9l-1.06-2.85-1.06,2.85h-2.9L1.32,2.76h0Z"/><path class="cls-1" d="M13.55.85h2.5v2.6h.02c.24-.35.97-.83,2.18-.83,1.38,0,2.42.61,2.42,2.14v3.47h-2.5v-2.82c0-.69-.36-.99-.96-.99-.67,0-1.16.39-1.16,1.3v2.51h-2.5V.86h0Z"/><path class="cls-1" d="M21.89,4.42c.15-.76.45-1.21,1.08-1.49.61-.28,1.51-.38,2.83-.38,2.54,0,3.55.57,3.55,2.2v2.63c0,.43.11.66.23.85h-2.56c-.05-.16-.08-.34-.09-.54-.56.52-1.41.76-2.73.76-1.67,0-2.74-.45-2.74-1.84,0-1,.7-1.64,2.56-1.72l2.11-.1c.51-.03.67-.14.67-.45,0-.36-.44-.53-1.16-.53-.56,0-1.15.09-1.26.61h-2.5ZM26.85,5.74c-.43.09-1.12.15-2.02.23-.47.04-.68.19-.68.54,0,.39.3.61.93.61.84,0,1.76-.21,1.76-1.15,0,0,0-.24,0-.24Z"/><path class="cls-1" d="M30.02,2.76h1.16v-1.76h2.5v1.76h1.35v1.55h-1.35v1.93c0,.51.21.54.75.54.2,0,.43,0,.67-.02v1.46c-.44.07-1.03.12-1.81.12-1.52,0-2.09-.3-2.09-1.78v-2.24h-1.16v-1.55h0Z"/><path class="cls-1" d="M35.88.85h2.5v2.6h.02c.24-.35.98-.83,2.18-.83,1.38,0,2.42.61,2.42,2.14v3.47h-2.5v-2.82c0-.69-.36-.99-.96-.99-.67,0-1.16.39-1.16,1.3v2.51h-2.5V.86h0Z"/><path class="cls-1" d="M51.89,6.59c-.19.59-.61,1.03-1.25,1.36-.64.32-1.49.5-2.65.5-2.62,0-4.12-.96-4.12-2.96,0-1.88,1.45-2.94,3.89-2.94s4.18.81,4.15,3.53h-5.49c0,.39.41.99,1.51.99.65,0,1.03-.13,1.3-.48h2.66,0ZM49.4,4.82c-.05-.6-.61-.96-1.48-.96s-1.36.27-1.5.96h2.98Z"/><path class="cls-1" d="M53.51,4.32h-1.16v-1.55h1.16v-.58c0-1,.58-1.4,2.21-1.4.48,0,1.12,0,1.64.06v1.32h-.75c-.47,0-.6.13-.6.44v.16h1.35v1.55h-1.35v3.9h-2.5v-3.9h0ZM58.02.85h2.5v7.37h-2.5V.85Z"/><path class="cls-1" d="M61.71.85h2.5v1.38h-2.5V.85ZM61.71,2.76h2.5v5.46h-2.5V2.76Z"/><path class="cls-1" d="M65.4,2.76h2.42v.65h.02c.45-.52,1.12-.79,2.24-.79,1.61,0,3.1.89,3.1,2.91s-1.49,2.91-3.1,2.91c-1.02,0-1.73-.26-2.17-.77h-.02v2.51h-2.5V2.76h0ZM69.27,6.77c.91,0,1.36-.53,1.36-1.24s-.4-1.24-1.36-1.24-1.36.45-1.36,1.24.41,1.24,1.38,1.24h0Z"/></svg>